# xmcd
#
# Track frame offsets: 
#        150
#        14003
#        30729
#        53526
#        69475
#        86414
#        103735
#        123100
#        137587
#        147435
#
# Disc length: 2147 seconds
#
# Revision: 0
# Processed by: cddbd v1.5.2PL0 Copyright (c) Steve Scherf et al.
# Submitted via: ExactAudioCopy v0.99pb3
#
DISCID=8308610a
DTITLE=The Hickman-Dalton Gang - Vol. II
DYEAR=2011
DGENRE=Dirty Country
TTITLE0=Wildcard
TTITLE1=You Got a Problem
TTITLE2=Mr. Wrong
TTITLE3=Elizabeth
TTITLE4=Let's Toke the Whole Day Off
TTITLE5=(Come On Back To) Stockton
TTITLE6=Too Many Years
TTITLE7=No Easy Way to Say Goodbye
TTITLE8=Construction Man
TTITLE9=Long White Line
EXTD=
EXTT0=
EXTT1=
EXTT2=
EXTT3=
EXTT4=
EXTT5=
EXTT6=
EXTT7=
EXTT8=
EXTT9=
PLAYORDER=
